<mxfile host="app.diagrams.net" modified="2023-12-24T14:42:05.225Z" agent="Mozilla/5.0 (Windows NT 10.0; Win64; x64; rv:109.0) Gecko/20100101 Firefox/119.0" etag="swlA6VLGBk4c5iCdSCYw" version="22.1.11" type="device">
  <diagram id="C5RBs43oDa-KdzZeNtuy" name="Page-1">
    <mxGraphModel dx="1313" dy="1867" grid="1" gridSize="10" guides="1" tooltips="1" connect="1" arrows="1" fold="1" page="1" pageScale="1" pageWidth="827" pageHeight="1169" math="0" shadow="0">
      <root>
        <mxCell id="WIyWlLk6GJQsqaUBKTNV-0" />
        <mxCell id="WIyWlLk6GJQsqaUBKTNV-1" parent="WIyWlLk6GJQsqaUBKTNV-0" />
        <mxCell id="uce8n3zWTAl_jad-7OEl-8" style="edgeStyle=orthogonalEdgeStyle;rounded=0;orthogonalLoop=1;jettySize=auto;html=1;exitX=1;exitY=0.5;exitDx=0;exitDy=0;entryX=0;entryY=0.5;entryDx=0;entryDy=0;curved=1;strokeWidth=3;" edge="1" parent="WIyWlLk6GJQsqaUBKTNV-1" source="uce8n3zWTAl_jad-7OEl-5" target="uce8n3zWTAl_jad-7OEl-2">
          <mxGeometry relative="1" as="geometry" />
        </mxCell>
        <mxCell id="uce8n3zWTAl_jad-7OEl-5" value="&lt;font style=&quot;font-size: 16px;&quot;&gt;name,query&lt;/font&gt;" style="rounded=0;whiteSpace=wrap;html=1;fillColor=#1ba1e2;fontColor=#ffffff;strokeColor=#006EAF;" vertex="1" parent="WIyWlLk6GJQsqaUBKTNV-1">
          <mxGeometry x="40" y="90" width="120" height="40" as="geometry" />
        </mxCell>
        <mxCell id="uce8n3zWTAl_jad-7OEl-9" value="&lt;font style=&quot;font-size: 18px;&quot;&gt;发送网络请求（SDK实现）&lt;/font&gt;" style="swimlane;childLayout=stackLayout;resizeParent=1;resizeParentMax=0;startSize=20;html=1;fillColor=#e51400;strokeColor=#B20000;fontColor=#ffffff;" vertex="1" parent="WIyWlLk6GJQsqaUBKTNV-1">
          <mxGeometry x="760" y="60" width="445" height="120" as="geometry" />
        </mxCell>
        <mxCell id="uce8n3zWTAl_jad-7OEl-10" value="Node" style="swimlane;startSize=20;html=1;fillColor=#ffe6cc;strokeColor=#d79b00;" vertex="1" parent="uce8n3zWTAl_jad-7OEl-9">
          <mxGeometry y="20" width="220" height="100" as="geometry" />
        </mxCell>
        <mxCell id="uce8n3zWTAl_jad-7OEl-18" value="&lt;div&gt;&lt;font style=&quot;font-size: 16px;&quot;&gt;data编码&lt;/font&gt;&lt;/div&gt;&lt;div&gt;&lt;font style=&quot;font-size: 16px;&quot;&gt;拼接构造url键值对参数&lt;/font&gt;&lt;/div&gt;&lt;div&gt;&lt;font style=&quot;font-size: 16px;&quot;&gt;axios发送请求&lt;br&gt;&lt;/font&gt;&lt;/div&gt;" style="text;html=1;align=center;verticalAlign=middle;resizable=0;points=[];autosize=1;strokeColor=none;fillColor=none;" vertex="1" parent="uce8n3zWTAl_jad-7OEl-10">
          <mxGeometry x="15" y="20" width="190" height="70" as="geometry" />
        </mxCell>
        <mxCell id="uce8n3zWTAl_jad-7OEl-11" value="Python" style="swimlane;startSize=20;html=1;fillColor=#f8cecc;strokeColor=#b85450;" vertex="1" parent="uce8n3zWTAl_jad-7OEl-9">
          <mxGeometry x="220" y="20" width="145" height="100" as="geometry" />
        </mxCell>
        <mxCell id="uce8n3zWTAl_jad-7OEl-19" value="&lt;div style=&quot;font-size: 15px;&quot;&gt;&lt;font style=&quot;font-size: 15px;&quot;&gt;判断请求方式&lt;/font&gt;&lt;/div&gt;&lt;div style=&quot;font-size: 15px;&quot;&gt;&lt;font style=&quot;font-size: 15px;&quot;&gt;requests发送请求&lt;font style=&quot;font-size: 15px;&quot;&gt;&lt;br&gt;&lt;/font&gt;&lt;/font&gt;&lt;/div&gt;" style="text;html=1;align=center;verticalAlign=middle;resizable=0;points=[];autosize=1;strokeColor=none;fillColor=none;" vertex="1" parent="uce8n3zWTAl_jad-7OEl-11">
          <mxGeometry x="5" y="30" width="140" height="50" as="geometry" />
        </mxCell>
        <mxCell id="uce8n3zWTAl_jad-7OEl-12" value="其他语言" style="swimlane;startSize=20;html=1;fillColor=#647687;fontColor=#ffffff;strokeColor=#314354;" vertex="1" parent="uce8n3zWTAl_jad-7OEl-9">
          <mxGeometry x="365" y="20" width="80" height="100" as="geometry" />
        </mxCell>
        <mxCell id="uce8n3zWTAl_jad-7OEl-21" value="&lt;div&gt;C++，Java&lt;/div&gt;&lt;div&gt;待补充&lt;/div&gt;" style="text;html=1;align=center;verticalAlign=middle;resizable=0;points=[];autosize=1;strokeColor=none;fillColor=none;" vertex="1" parent="uce8n3zWTAl_jad-7OEl-12">
          <mxGeometry y="35" width="80" height="40" as="geometry" />
        </mxCell>
        <mxCell id="uce8n3zWTAl_jad-7OEl-17" style="edgeStyle=orthogonalEdgeStyle;rounded=0;orthogonalLoop=1;jettySize=auto;html=1;exitX=1;exitY=0.5;exitDx=0;exitDy=0;curved=1;strokeWidth=3;" edge="1" parent="WIyWlLk6GJQsqaUBKTNV-1" source="uce8n3zWTAl_jad-7OEl-14" target="uce8n3zWTAl_jad-7OEl-9">
          <mxGeometry relative="1" as="geometry" />
        </mxCell>
        <mxCell id="uce8n3zWTAl_jad-7OEl-14" value="&lt;ul style=&quot;font-size: 15px;&quot;&gt;&lt;li&gt;url&lt;br&gt;&lt;/li&gt;&lt;li&gt;headers&lt;/li&gt;&lt;li&gt;data&lt;/li&gt;&lt;li&gt;method&lt;/li&gt;&lt;li&gt;crypto&lt;/li&gt;&lt;li&gt;apiName&lt;br&gt;&lt;/li&gt;&lt;/ul&gt;" style="text;strokeColor=#9673a6;fillColor=#e1d5e7;html=1;whiteSpace=wrap;verticalAlign=middle;overflow=hidden;" vertex="1" parent="WIyWlLk6GJQsqaUBKTNV-1">
          <mxGeometry x="680" y="-100" width="120" height="140" as="geometry" />
        </mxCell>
        <mxCell id="uce8n3zWTAl_jad-7OEl-16" style="edgeStyle=orthogonalEdgeStyle;rounded=0;orthogonalLoop=1;jettySize=auto;html=1;exitX=1;exitY=0.5;exitDx=0;exitDy=0;entryX=0;entryY=0.5;entryDx=0;entryDy=0;curved=1;strokeWidth=3;" edge="1" parent="WIyWlLk6GJQsqaUBKTNV-1" source="uce8n3zWTAl_jad-7OEl-2" target="uce8n3zWTAl_jad-7OEl-14">
          <mxGeometry relative="1" as="geometry" />
        </mxCell>
        <mxCell id="uce8n3zWTAl_jad-7OEl-25" value="&lt;ul style=&quot;font-size: 15px;&quot;&gt;&lt;li&gt;status&lt;/li&gt;&lt;li&gt;data&lt;/li&gt;&lt;li&gt;headers&lt;/li&gt;&lt;li&gt;crypto&lt;/li&gt;&lt;li&gt;apiName&lt;br&gt;&lt;/li&gt;&lt;/ul&gt;" style="text;strokeColor=#6c8ebf;fillColor=#dae8fc;html=1;whiteSpace=wrap;verticalAlign=middle;overflow=hidden;" vertex="1" parent="WIyWlLk6GJQsqaUBKTNV-1">
          <mxGeometry x="780" y="250" width="120" height="120" as="geometry" />
        </mxCell>
        <mxCell id="uce8n3zWTAl_jad-7OEl-26" style="edgeStyle=orthogonalEdgeStyle;rounded=0;orthogonalLoop=1;jettySize=auto;html=1;exitX=1;exitY=1;exitDx=0;exitDy=0;entryX=0.5;entryY=0;entryDx=0;entryDy=0;curved=1;strokeWidth=3;" edge="1" parent="WIyWlLk6GJQsqaUBKTNV-1" source="uce8n3zWTAl_jad-7OEl-10" target="uce8n3zWTAl_jad-7OEl-25">
          <mxGeometry relative="1" as="geometry" />
        </mxCell>
        <mxCell id="uce8n3zWTAl_jad-7OEl-27" style="edgeStyle=orthogonalEdgeStyle;rounded=0;orthogonalLoop=1;jettySize=auto;html=1;exitX=0.5;exitY=1;exitDx=0;exitDy=0;entryX=0.51;entryY=1.029;entryDx=0;entryDy=0;entryPerimeter=0;curved=1;strokeWidth=3;" edge="1" parent="WIyWlLk6GJQsqaUBKTNV-1" source="uce8n3zWTAl_jad-7OEl-25" target="uce8n3zWTAl_jad-7OEl-3">
          <mxGeometry relative="1" as="geometry">
            <Array as="points">
              <mxPoint x="840" y="390" />
              <mxPoint x="373" y="390" />
            </Array>
          </mxGeometry>
        </mxCell>
        <mxCell id="uce8n3zWTAl_jad-7OEl-34" value="&lt;font style=&quot;font-size: 17px;&quot;&gt;最终请求数据&lt;/font&gt;" style="rounded=1;whiteSpace=wrap;html=1;fillColor=#60a917;fontColor=#ffffff;strokeColor=#2D7600;" vertex="1" parent="WIyWlLk6GJQsqaUBKTNV-1">
          <mxGeometry x="40" y="280" width="120" height="60" as="geometry" />
        </mxCell>
        <mxCell id="uce8n3zWTAl_jad-7OEl-32" style="edgeStyle=orthogonalEdgeStyle;rounded=0;orthogonalLoop=1;jettySize=auto;html=1;exitX=0;exitY=0.5;exitDx=0;exitDy=0;entryX=1;entryY=0.5;entryDx=0;entryDy=0;curved=1;strokeWidth=3;" edge="1" parent="WIyWlLk6GJQsqaUBKTNV-1" source="uce8n3zWTAl_jad-7OEl-3" target="uce8n3zWTAl_jad-7OEl-34">
          <mxGeometry relative="1" as="geometry">
            <mxPoint x="140" y="225.30769230769238" as="targetPoint" />
          </mxGeometry>
        </mxCell>
        <mxCell id="uce8n3zWTAl_jad-7OEl-36" value="" style="swimlane;startSize=0;fillColor=#d5e8d4;gradientColor=default;strokeColor=#82b366;strokeWidth=6;dashed=1;" vertex="1" parent="WIyWlLk6GJQsqaUBKTNV-1">
          <mxGeometry x="200" y="-80" width="394" height="350" as="geometry" />
        </mxCell>
        <mxCell id="uce8n3zWTAl_jad-7OEl-38" value="&lt;font style=&quot;font-size: 16px;&quot;&gt;平台下JS引擎调用&lt;/font&gt;" style="swimlane;childLayout=stackLayout;resizeParent=1;resizeParentMax=0;startSize=20;html=1;fillColor=#e51400;fontColor=#ffffff;strokeColor=#B20000;" vertex="1" parent="uce8n3zWTAl_jad-7OEl-36">
          <mxGeometry x="17" y="30" width="360" height="115" as="geometry" />
        </mxCell>
        <mxCell id="uce8n3zWTAl_jad-7OEl-39" value="Node" style="swimlane;startSize=20;html=1;fillColor=#ffe6cc;strokeColor=#d79b00;" vertex="1" parent="uce8n3zWTAl_jad-7OEl-38">
          <mxGeometry y="20" width="120" height="95" as="geometry" />
        </mxCell>
        <mxCell id="uce8n3zWTAl_jad-7OEl-40" value="Python" style="swimlane;startSize=20;html=1;fillColor=#f8cecc;strokeColor=#b85450;" vertex="1" parent="uce8n3zWTAl_jad-7OEl-38">
          <mxGeometry x="120" y="20" width="120" height="95" as="geometry" />
        </mxCell>
        <mxCell id="uce8n3zWTAl_jad-7OEl-41" value="其他语言" style="swimlane;startSize=20;html=1;fillColor=#647687;fontColor=#ffffff;strokeColor=#314354;" vertex="1" parent="uce8n3zWTAl_jad-7OEl-38">
          <mxGeometry x="240" y="20" width="120" height="95" as="geometry" />
        </mxCell>
        <mxCell id="uce8n3zWTAl_jad-7OEl-46" value="&lt;div&gt;C++，Java&lt;/div&gt;&lt;div&gt;待补充&lt;/div&gt;" style="text;html=1;align=center;verticalAlign=middle;resizable=0;points=[];autosize=1;strokeColor=none;fillColor=none;" vertex="1" parent="uce8n3zWTAl_jad-7OEl-41">
          <mxGeometry x="20" y="40" width="80" height="40" as="geometry" />
        </mxCell>
        <mxCell id="uce8n3zWTAl_jad-7OEl-42" style="edgeStyle=orthogonalEdgeStyle;rounded=0;orthogonalLoop=1;jettySize=auto;html=1;exitX=0.5;exitY=0;exitDx=0;exitDy=0;entryX=0.423;entryY=-0.018;entryDx=0;entryDy=0;entryPerimeter=0;" edge="1" parent="uce8n3zWTAl_jad-7OEl-38" source="uce8n3zWTAl_jad-7OEl-39" target="uce8n3zWTAl_jad-7OEl-39">
          <mxGeometry relative="1" as="geometry" />
        </mxCell>
        <mxCell id="uce8n3zWTAl_jad-7OEl-1" value="&lt;b&gt;&lt;font style=&quot;font-size: 15px;&quot;&gt;NeteaseCloudMusicApi.js&lt;/font&gt;&lt;/b&gt;" style="swimlane;fontStyle=0;childLayout=stackLayout;horizontal=1;startSize=30;horizontalStack=0;resizeParent=1;resizeParentMax=0;resizeLast=0;collapsible=1;marginBottom=0;whiteSpace=wrap;html=1;fillColor=#ffe6cc;strokeColor=#d79b00;" vertex="1" parent="uce8n3zWTAl_jad-7OEl-36">
          <mxGeometry x="67" y="205" width="260" height="120" as="geometry" />
        </mxCell>
        <mxCell id="uce8n3zWTAl_jad-7OEl-2" value="&lt;div style=&quot;font-size: 13px;&quot; align=&quot;center&quot;&gt;&lt;font style=&quot;font-size: 15px;&quot;&gt;beforeRequest&lt;/font&gt;&lt;/div&gt;" style="text;strokeColor=#9673a6;fillColor=#e1d5e7;align=center;verticalAlign=middle;spacingLeft=4;spacingRight=4;overflow=hidden;points=[[0,0.5],[1,0.5]];portConstraint=eastwest;rotatable=0;whiteSpace=wrap;html=1;resizeHeight=1;" vertex="1" parent="uce8n3zWTAl_jad-7OEl-1">
          <mxGeometry y="30" width="260" height="40" as="geometry" />
        </mxCell>
        <mxCell id="uce8n3zWTAl_jad-7OEl-3" value="&lt;div style=&quot;font-size: 13px;&quot; align=&quot;center&quot;&gt;&lt;font style=&quot;font-size: 16px;&quot;&gt;afterRequest&lt;/font&gt;&lt;/div&gt;" style="text;strokeColor=#6c8ebf;fillColor=#dae8fc;align=center;verticalAlign=middle;spacingLeft=4;spacingRight=4;overflow=hidden;points=[[0,0.5],[1,0.5]];portConstraint=eastwest;rotatable=0;whiteSpace=wrap;html=1;" vertex="1" parent="uce8n3zWTAl_jad-7OEl-1">
          <mxGeometry y="70" width="260" height="50" as="geometry" />
        </mxCell>
        <mxCell id="uce8n3zWTAl_jad-7OEl-44" value="&lt;font style=&quot;font-size: 16px;&quot;&gt;本身支持&lt;/font&gt;" style="text;html=1;align=center;verticalAlign=middle;resizable=0;points=[];autosize=1;strokeColor=none;fillColor=none;" vertex="1" parent="WIyWlLk6GJQsqaUBKTNV-1">
          <mxGeometry x="235" y="8" width="90" height="30" as="geometry" />
        </mxCell>
        <mxCell id="uce8n3zWTAl_jad-7OEl-45" value="&lt;font style=&quot;font-size: 17px;&quot;&gt;py_mini_racer&lt;/font&gt;" style="text;html=1;align=center;verticalAlign=middle;resizable=0;points=[];autosize=1;strokeColor=none;fillColor=none;" vertex="1" parent="WIyWlLk6GJQsqaUBKTNV-1">
          <mxGeometry x="335" y="8" width="130" height="30" as="geometry" />
        </mxCell>
      </root>
    </mxGraphModel>
  </diagram>
</mxfile>
